<?xml version="1.0" encoding="UTF-8"?>
<!DOCTYPE svg PUBLIC "-//W3C//DTD SVG 1.1//EN" "http://www.w3.org/Graphics/SVG/1.1/DTD/svg11.dtd">
<!-- Creator: CorelDRAW X7 -->
<svg xmlns="http://www.w3.org/2000/svg" xml:space="preserve" width="142px" height="41px" version="1.1" style="shape-rendering:geometricPrecision; text-rendering:geometricPrecision; image-rendering:optimizeQuality; fill-rule:evenodd; clip-rule:evenodd"
viewBox="0 0 142 41"
 xmlns:xlink="http://www.w3.org/1999/xlink">
 <defs>
  <style type="text/css">
   <![CDATA[
    .str1 {stroke:#22940C;stroke-width:2.36222}
    .str0 {stroke:#373435;stroke-width:0.900005}
    .fil0 {fill:#373435}
    .fil3 {fill:#22940C}
    .fil1 {fill:url(#id0)}
    .fil2 {fill:url(#id1)}
    .fil5 {fill:url(#id2)}
    .fil4 {fill:url(#id3)}
   ]]>
  </style>
  <linearGradient id="id0" gradientUnits="userSpaceOnUse" x1="2.85356" y1="26.0824" x2="35.7333" y2="26.0824">
   <stop offset="0" style="stop-opacity:1; stop-color:#16BADA"/>
   <stop offset="1" style="stop-opacity:1; stop-color:#2E8CAB"/>
  </linearGradient>
  <linearGradient id="id1" gradientUnits="userSpaceOnUse" x1="4.94294" y1="23.047" x2="37.486" y2="23.047">
   <stop offset="0" style="stop-opacity:1; stop-color:#52C6D4"/>
   <stop offset="0.690196" style="stop-opacity:1; stop-color:#4EAABF"/>
   <stop offset="0.568627" style="stop-opacity:1; stop-color:#4B95B1"/>
   <stop offset="1" style="stop-opacity:1; stop-color:#498DAA"/>
  </linearGradient>
  <linearGradient id="id2" gradientUnits="userSpaceOnUse" x1="23.1722" y1="10.4327" x2="25.7895" y2="1.35355">
   <stop offset="0" style="stop-opacity:1; stop-color:#BB63A0"/>
   <stop offset="1" style="stop-opacity:1; stop-color:#54438C"/>
  </linearGradient>
  <linearGradient id="id3" gradientUnits="userSpaceOnUse" x1="10.0182" y1="8.53587" x2="32.3364" y2="32.0955">
   <stop offset="0" style="stop-opacity:1; stop-color:#2FFF00"/>
   <stop offset="0.411765" style="stop-opacity:1; stop-color:#31A71A"/>
   <stop offset="1" style="stop-opacity:1; stop-color:#344E34"/>
  </linearGradient>
 </defs>
 <g id="Camada_x0020_1">
  <metadata id="CorelCorpID_0Corel-Layer"/>
  <g id="_558284200">
   <path class="fil0 str0" d="M57 40l-1 0c-1,0 -2,0 -2,-1 -1,0 -1,-1 -1,-2l0 -5c0,-1 0,-2 1,-3 0,0 1,-1 2,-1l1 0 0 1 -1 0c-1,0 -2,0 -2,0 -1,1 -1,2 -1,3l0 5c0,1 0,1 1,2 0,0 1,1 2,1l1 0 0 0zm12 0l0 0 -1 -3 -5 0 0 3 -1 0 4 -11 0 0 3 11zm-1 -3l-2 -8 -2 8 4 0zm10 -13l-3 1 0 0 2 -2 1 1zm1 16l-5 0 0 -12 5 0 0 1 -5 0 0 4 3 0 0 1 -3 0 0 6 5 0 0 0zm11 0l0 0 0 -11 -3 6 -3 -6 0 11 0 0 0 -11 0 0 3 6 3 -6 0 0 0 11z"/>
   <path class="fil0 str0" d="M53 13l0 0 0 -12 0 0 0 12zm13 0l0 0 -5 -11 0 11 0 0 0 -12 0 0 5 11 0 -11 0 0 0 12zm11 -3c0,1 0,1 -1,2 0,1 -1,1 -1,1 -1,0 -1,0 -2,-1 -1,0 -1,0 -1,0l0 -1c1,1 2,2 3,2 0,0 1,-1 1,-1 1,-1 1,-1 1,-2 0,0 0,-1 -1,-1 0,-1 0,-1 0,-1 0,0 -1,0 -1,0l-2 -1c0,0 0,-1 0,-1 0,0 -1,0 -1,0 0,-1 -1,-1 -1,-2 0,-1 1,-1 1,-2 0,-1 1,-1 2,-1 1,0 2,0 2,1l0 0c-1,0 -2,-1 -2,-1 -1,0 -1,1 -2,1 0,1 0,1 0,2 0,1 0,2 1,2 0,0 1,1 1,1 1,0 1,0 2,1 1,0 1,1 1,2zm11 -9l-3 0 0 12 0 0 0 -12 -3 0 0 0 6 0 0 0zm8 12l-1 0 0 -12 1 0 0 12zm13 -12l-3 0 0 12 0 0 0 -12 -2 0 0 0 5 0 0 0zm11 9c0,0 -1,1 -1,2 -1,0 -1,1 -2,1 -1,0 -2,-1 -2,-1 -1,-1 -1,-2 -1,-2l0 -9 0 0 0 9c0,0 1,1 1,2 1,0 1,1 2,1 1,0 1,-1 2,-1 0,-1 0,-2 0,-2l0 -9 1 0 0 9zm10 -9l-2 0 0 12 -1 0 0 -12 -2 0 0 0 5 0 0 0zm11 9c0,0 0,1 -1,2 0,0 -1,1 -2,1 -1,0 -1,-1 -2,-1 0,-1 -1,-2 -1,-2l0 -6c0,0 1,-1 1,-2 1,0 1,-1 2,-1 1,0 2,1 2,1 1,1 1,2 1,2l0 6zm0 0l0 -6c0,0 0,-1 -1,-2 0,0 -1,-1 -2,-1 -1,0 -1,1 -2,1 0,1 0,2 0,2l0 6c0,0 0,1 0,2 1,0 1,1 2,1 1,0 2,-1 2,-1 1,-1 1,-2 1,-2z"/>
   <g>
    <path class="fil1" d="M21 30c-9,12 -19,-1 -18,-2 2,12 15,11 20,3 0,0 7,-11 8,-12 0,0 2,-2 3,-2 0,0 1,-1 2,0 -2,-2 -4,-3 -6,0l-9 13z"/>
    <path class="fil2" d="M6 31c2,5 10,7 15,-1l9 -13c2,-3 4,-2 6,1 0,0 0,0 0,0 0,0 1,1 1,7 0,-13 -4,-20 -11,-8 -2,2 -7,11 -8,12 0,0 -3,4 -7,3 0,0 -3,-1 -4,-4 -1,-6 4,-5 4,-5 -6,-2 -7,4 -5,8z"/>
    <path class="fil3 str1" d="M3 28c4,-14 18,0 20,1l7 4 6 3c0,0 5,2 6,-2 0,0 1,-5 -1,-11 -6,-19 -3,-6 -3,-3 2,9 4,11 0,11 -2,1 -5,-1 -8,-3l-10 -5c-4,-2 -11,-6 -15,-2 -2,2 -3,6 -2,7z"/>
    <path class="fil4" d="M20 23l10 5c3,2 6,4 8,3 8,-1 1,-31 -9,-19 0,0 4,-2 6,1 0,0 2,3 2,10 0,0 1,5 -3,4 0,0 -12,-5 -19,-9 -8,-3 -13,0 -14,10 0,0 1,-5 4,-7 4,-4 11,0 15,2z"/>
    <path class="fil5" d="M24 1c3,0 4,2 4,5 0,3 -1,5 -4,5 -2,0 -4,-2 -4,-5 0,-3 2,-5 4,-5z"/>
   </g>
  </g>
 </g>
</svg>
