<?xml version="1.0" encoding="UTF-8"?>
<!DOCTYPE svg PUBLIC "-//W3C//DTD SVG 1.1//EN" "http://www.w3.org/Graphics/SVG/1.1/DTD/svg11.dtd">
<!-- Creator: CorelDRAW X7 -->
<svg xmlns="http://www.w3.org/2000/svg" xml:space="preserve" width="500px" height="484px" version="1.1" style="shape-rendering:geometricPrecision; text-rendering:geometricPrecision; image-rendering:optimizeQuality; fill-rule:evenodd; clip-rule:evenodd"
viewBox="0 0 500 484"
 xmlns:xlink="http://www.w3.org/1999/xlink">
 <defs>
  <style type="text/css">
   <![CDATA[
    .str0 {stroke:#A9ABAE;stroke-width:2.81223}
    .fil0 {fill:#A9ABAE}
   ]]>
  </style>
 </defs>
 <g id="Camada_x0020_1">
  <metadata id="CorelCorpID_0Corel-Layer"/>
  <g id="_556536824">
   <path class="fil0 str0" d="M164 442c-18,0 -15,3 -19,-11 7,-7 22,-3 33,-3l-4 0c26,0 166,-6 181,3 -4,14 -1,11 -19,11l-172 0 0 0zm41 -30c11,-13 10,-30 17,-45l56 1c7,14 6,31 18,45l-91 -1 0 0zm254 -104c0,27 7,44 -22,46l-314 -1c-88,0 -81,9 -82,-45l418 0zm-388 -237l354 0 4 0 -4 222 -354 0 0 -222zm-23 222c-10,-3 -4,6 -7,-9l0 -126c0,-90 -12,-117 26,-117l388 3c7,21 4,155 4,196 0,29 6,53 -7,53 -12,-3 -9,-6 -9,-23l1 -166c0,-29 9,-48 -19,-48l-350 0c-28,0 -19,19 -19,48l0 132c0,35 6,53 -8,57l0 0zm-21 -246l0 300c17,27 27,20 77,20 34,0 68,0 101,0 -9,85 -92,13 -69,84 29,12 150,5 194,5 52,1 44,-35 24,-41 -32,-12 -53,10 -59,-48l151 0c22,-2 19,-9 27,-23l0 -297c-12,-18 -13,-21 -40,-21l-370 0c-24,1 -25,5 -36,21l0 0z"/>
   <path class="fil0 str0" d="M168 183l69 30c12,10 0,-3 9,22l2 5c23,-10 -12,-15 35,-35 16,-8 31,-18 49,-22l0 39c-10,6 -71,38 -81,39 -13,0 -70,-32 -83,-39l0 -39 0 0zm167 -43c5,3 6,1 8,7l-87 -1 -3 -12c-1,0 -15,-12 -10,25l5 15c18,-7 1,-13 19,-15l74 0c-6,5 -82,47 -101,41l-98 -47c15,-10 33,-17 50,-25 89,-38 30,-34 143,12zm-218 12c4,11 18,16 37,21l0 56c10,8 86,47 95,47 11,1 85,-38 96,-47l1 -56 24 -9c0,13 1,39 -1,49 -3,17 -13,14 -13,33 20,3 7,0 21,-12 3,4 4,9 10,10 1,1 2,1 3,1 8,1 2,1 7,-2 0,-15 -11,-14 -14,-36 -1,-18 2,-39 0,-59 -9,-7 -126,-61 -134,-61 -3,1 -124,52 -132,65l0 0z"/>
   <path class="fil0 str0" d="M221 329c6,13 9,9 27,9 19,0 25,5 31,-9 -11,-8 -45,-9 -58,0z"/>
  </g>
 </g>
</svg>
