<?xml version="1.0" encoding="UTF-8"?>
<!DOCTYPE svg PUBLIC "-//W3C//DTD SVG 1.1//EN" "http://www.w3.org/Graphics/SVG/1.1/DTD/svg11.dtd">
<!-- Creator: CorelDRAW X7 -->
<svg xmlns="http://www.w3.org/2000/svg" xml:space="preserve" width="2480px" height="3508px" version="1.1" style="shape-rendering:geometricPrecision; text-rendering:geometricPrecision; image-rendering:optimizeQuality; fill-rule:evenodd; clip-rule:evenodd"
viewBox="0 0 2480 3507"
 xmlns:xlink="http://www.w3.org/1999/xlink">
 <defs>
  <style type="text/css">
   <![CDATA[
    .fil0 {fill:#848688}
   ]]>
  </style>
 </defs>
 <g id="Camada_x0020_1">
  <metadata id="CorelCorpID_0Corel-Layer"/>
  <g id="_2135361520144">
   <path class="fil0" d="M1191 1084c4,1 17,16 22,21 7,7 15,13 20,23 -3,-1 -12,-12 -15,-16l-16 -15c-3,-3 -10,-9 -11,-13zm0 0l-2 -1 2 1zm-2 -1l-1 -1 1 1zm-1 -1l-1 -1 1 1zm-1 -1l-1 -2 1 2zm-1 -3l0 1 -1 1c-1,-1 -1,-1 -2,-2l-3 -4c5,2 4,1 6,4zm-368 -204c0,6 4,7 8,11 4,4 5,6 9,10 34,35 62,63 103,91 8,5 15,9 21,16l1 1c6,6 12,15 12,27 -15,0 -35,23 -91,32 -22,4 -17,2 -39,-5 -25,-8 -51,-13 -75,-20l-47 -16c-12,-4 -22,-8 -33,-14 -6,-2 -6,-4 -11,-3 0,10 6,10 16,16 20,12 43,22 66,29 16,6 34,10 50,14 32,9 63,21 92,36 17,8 32,8 46,18 13,11 23,26 34,38 9,9 19,20 33,24 -1,4 -2,3 -7,5 -13,4 -19,0 -31,-7 -6,-4 -11,-7 -18,-11 -3,-2 -6,-3 -8,-6 -1,-2 -3,-8 -4,-10 -1,-5 -2,-7 -3,-12 0,-4 0,-10 -4,-10 -16,0 14,68 16,74 3,8 18,61 18,70 0,10 -6,16 -16,16 0,-8 -18,-38 -23,-52 -2,-5 -3,-9 -5,-14 -2,-5 -4,-9 -5,-14 -3,-7 -7,-24 -12,-27 -5,4 -2,8 -1,14 10,53 37,85 37,107 0,11 -10,31 -20,17 -5,-5 -9,-26 -12,-33 -3,-8 -6,-14 -9,-21 -7,-14 -12,-28 -18,-42 -4,-10 -12,-26 -19,-35 -2,-3 -5,-2 -6,1 -1,5 3,9 5,12 13,26 18,51 33,80 6,13 7,24 11,33 -5,3 -6,5 -15,5 -4,0 -11,-10 -12,-13 -22,-49 -22,-67 -59,-114 -2,-3 -4,-4 -8,-5 -5,6 1,9 5,14 9,13 18,24 24,39l17 45c2,5 6,8 6,15 -10,0 -13,-4 -18,-10 -5,-6 -8,-10 -12,-17 -11,-19 -18,-37 -32,-52l-13 -16c-30,-39 -14,-38 -19,-60 -1,-8 -1,-10 -9,-10 -1,4 -1,4 -1,10 -7,-3 -30,-7 -40,-11 -9,-4 -20,-6 -29,-10 -7,-3 -8,-6 -14,-2 1,4 0,3 3,5 9,8 31,17 43,19l0 3c-31,7 -74,83 -52,83 9,0 8,-7 18,-26 4,-9 10,-18 17,-25 7,-7 12,-14 22,-19 17,-9 12,-7 30,-3 -1,13 -3,14 5,30 14,27 37,46 52,72 9,15 23,49 44,49l11 -1c3,7 7,15 14,19 5,3 8,1 14,1 7,-1 9,-2 13,-5 3,6 5,8 12,9 18,5 30,-14 30,-32 30,-7 27,-30 20,-54 -5,-16 -8,-33 -14,-48 -2,-6 -8,-18 -9,-23 3,2 6,3 9,6 4,2 4,3 7,6 9,8 15,9 27,9 17,0 35,-16 20,-27 -4,-3 -6,-3 -10,-5 -12,-7 -42,-62 -78,-72 -12,-3 -21,-7 -32,-13l-7 -3c-2,-2 -1,-1 -3,-2 24,-6 43,-9 63,-20 38,-21 15,-4 26,39 5,18 20,34 34,46l15 13c4,4 9,9 12,14 4,8 4,12 12,16 4,1 24,-11 21,-27 0,-6 -4,-13 -7,-18 -3,-6 -7,-11 -8,-17 6,3 13,6 20,10 38,23 93,79 137,79 7,0 16,-5 19,-4 5,1 13,5 20,5 9,0 17,-5 17,-14 0,-4 -8,-10 -10,-14 2,-4 4,-6 4,-11 0,-7 -16,-24 -21,-31 -7,-8 12,-10 -11,-34 -17,-16 -35,-32 -54,-46 -26,-19 -10,-19 -47,-36 -22,-9 -39,-12 -55,-31 -2,-3 -5,-5 -7,-9 -9,-11 -46,-49 -58,-60l-32 -34c-4,-4 -5,-5 -9,-9 -11,-13 -18,-8 -9,2l47 55c17,20 51,58 67,74 19,19 59,24 75,38 4,4 23,31 33,43 11,13 25,26 37,38 3,4 5,6 8,10 7,6 11,14 18,21 3,3 7,6 9,10 -8,0 -8,-5 -13,-10 -13,-12 -22,-23 -37,-36l-38 -34c-2,-1 -13,-14 -13,-4 0,4 9,10 11,13 12,15 26,28 40,40 10,8 17,18 26,27 2,2 4,3 6,6 3,3 3,4 6,7 4,4 11,11 12,15 -4,3 -12,0 -16,-1 -11,-2 -8,-9 -28,-24 -13,-10 -26,-19 -39,-29l-36 -32c-9,-8 -18,-17 -25,-26 -4,-5 -4,-6 -10,-4 0,7 5,11 10,17 8,11 18,20 27,30l15 14c12,10 18,17 32,26 9,6 27,15 32,26 -34,0 -66,-27 -91,-46 -4,-3 -7,-5 -11,-7 -20,-16 -36,-26 -62,-32 -9,-3 -8,-12 -16,-12 -15,0 13,34 16,38 5,9 19,31 1,36 -4,-3 -8,-14 -13,-19 -6,-6 -12,-10 -18,-16l-9 -7c-3,-3 -4,-6 -8,-9 -4,-5 -11,-14 -14,-20 -15,-32 2,-87 -23,-110 -7,-6 -46,-32 -59,-41 -6,-5 -12,-9 -19,-15l-53 -47c-4,-4 -12,-15 -18,-15l-2 2z"/>
   <path class="fil0" d="M1173 1029c0,5 12,4 22,6 67,11 86,27 125,77l26 31c7,7 17,20 28,29 3,2 4,4 7,6 4,3 6,4 9,7 19,14 16,12 35,23 19,11 24,13 24,0 -4,-2 -27,-18 -32,-22l-30 -24 -32 -33c-2,-3 -4,-6 -6,-8 -14,-17 -30,-38 -44,-53l-6 -5c-5,-5 -9,-9 -14,-13 -29,-20 -67,-30 -104,-25 -4,0 -8,-1 -8,4z"/>
   <path class="fil0" d="M1470 1321c0,-12 -17,-7 -39,-17 -23,-11 -34,-43 -46,-65 -21,-37 -32,-47 -61,-77l-15 -13c-15,-15 -33,-34 -45,-52 -2,-4 -2,-6 -8,-7 -6,5 -2,8 4,18l25 33c2,3 4,5 6,8 3,3 4,4 7,7l34 38c28,27 44,68 62,97 11,19 31,32 53,34 7,1 23,4 23,-4z"/>
   <path class="fil0" d="M1051 1210c0,5 22,15 27,18 11,5 20,9 29,16 9,7 11,10 18,16 13,12 16,16 28,27l26 20c15,10 41,26 57,32 6,3 12,5 17,7 30,15 30,-6 13,-15 -5,-2 -10,-4 -15,-6 -11,-4 -21,-9 -31,-14 -5,-3 -8,-6 -14,-8l-27 -18c-4,-3 -9,-7 -13,-10l-12 -10c-23,-18 -33,-32 -67,-47 -5,-2 -10,-4 -15,-6 -7,-3 -21,-12 -21,-2z"/>
   <path class="fil0" d="M1185 1080l1 -2c-2,-3 -1,-2 -6,-4l3 4c1,1 1,1 2,2z"/>
  </g>
 </g>
</svg>
