<?xml version="1.0" encoding="UTF-8"?>
<!DOCTYPE svg PUBLIC "-//W3C//DTD SVG 1.1//EN" "http://www.w3.org/Graphics/SVG/1.1/DTD/svg11.dtd">
<!-- Creator: CorelDRAW X7 -->
<svg xmlns="http://www.w3.org/2000/svg" xml:space="preserve" width="500px" height="484px" version="1.1" style="shape-rendering:geometricPrecision; text-rendering:geometricPrecision; image-rendering:optimizeQuality; fill-rule:evenodd; clip-rule:evenodd"
viewBox="0 0 500 484"
 xmlns:xlink="http://www.w3.org/1999/xlink">
 <defs>
  <style type="text/css">
   <![CDATA[
    .str0 {stroke:#96989A;stroke-width:0.900007}
    .fil0 {fill:#848688}
   ]]>
  </style>
 </defs>
 <g id="Camada_x0020_1">
  <metadata id="CorelCorpID_0Corel-Layer"/>
  <path class="fil0 str0" d="M17 373l466 0c2,4 3,2 4,10 1,3 1,12 1,16 0,11 0,18 -2,28l-223 3 6 12c42,-2 161,-12 187,3 -2,26 -5,24 -31,24l-346 0c-27,0 -33,4 -35,-24 18,-10 123,-5 160,-4 23,0 42,5 35,-13l-225 0c-3,-18 -4,-38 1,-52 0,0 1,-2 2,-3zm192 -31c17,-10 51,-6 74,-6l-1 24c-24,0 -58,4 -73,-5l0 -13zm-49 -48l11 24 -17 2c0,-2 -1,-12 0,-13 2,-11 1,-7 6,-13zm-121 9c23,13 -3,9 39,34l0 23c-29,1 -32,13 -39,-57zm408 -32c9,-9 -1,-5 15,-5 2,15 4,10 -4,20 3,43 9,65 -35,72 10,-17 19,-21 12,-48 -6,-21 -7,-33 12,-39zm-28 5c-2,21 6,48 4,55 -2,12 -24,35 -42,21 -26,-18 -19,-83 38,-76zm-211 -18l44 -19 1 31 -29 12 -16 -24zm-91 -11l7 -19c54,3 28,21 53,32 18,8 13,-2 28,14 9,9 13,18 13,34 0,34 -21,-3 -23,52l-101 0 -1 -25c29,-2 104,10 90,-27 -12,-32 -49,-45 -57,-51 -10,-8 -3,1 -9,-10zm59 -6c6,-16 28,-21 46,-26l5 15c-7,7 -14,8 -25,13 -18,7 -15,8 -26,-2zm-103 -48c3,6 7,15 11,22 9,13 13,7 25,14l-6 21 -28 1c-4,-27 -12,-44 -2,-58zm169 -50l4 -14 17 4c32,11 17,83 -21,91 -19,-29 11,-18 8,-49 -14,3 -59,57 -103,42l14 -29c-14,-8 -14,0 -14,0 -16,12 1,31 -37,22 9,-15 16,-27 27,-44 12,-21 15,-36 42,-36 10,17 5,31 27,35 20,4 30,-6 36,-22zm-12 -12c-3,15 -5,17 -18,21 -12,-5 -16,-6 -14,-20l32 -1zm-58 -61c13,-9 19,-14 39,-11 14,2 32,5 44,11 -2,63 -84,65 -83,0zm6 -22l-8 7c2,-17 1,-9 6,-13 12,-41 70,-37 78,11 -31,-4 -49,-15 -76,-5zm-178 318l0 68c11,9 12,6 31,6 1,56 32,43 86,42l328 0c23,-4 24,-17 24,-42 20,0 20,3 31,-6l0 -68 -39 -7c11,-27 21,-65 11,-102 -28,-7 -28,4 -60,5 -30,0 -36,8 -50,24l-40 -15c2,19 12,17 31,26 2,36 -2,33 13,61 13,7 -62,4 -69,3l2 -26 25 -1c-8,-20 -69,-11 -90,-11l-2 -24c16,-23 47,-12 66,-25 -17,-23 -22,10 -31,-16 0,-58 21,-26 25,-79 4,-52 -11,-49 -38,-67 32,-38 14,-112 -41,-112 -57,0 -72,76 -40,114 -53,20 -44,53 -77,88 -13,-11 -20,-34 -43,-20 -4,17 3,67 15,79 32,23 73,-27 72,58l-61 1c-21,-8 -19,-39 -52,-31l6 69 -33 8z"/>
  <path class="fil0 str0" d="M458 286c8,-10 6,-5 4,-20 -16,0 -6,-4 -15,5l13 -2 -2 17z"/>
  <path class="fil0 str0" d="M178 48l-2 -6c-5,4 -4,-4 -6,13l8 -7z"/>
  <polygon class="fil0 str0" points="242,143 249,131 263,133 246,129 "/>
 </g>
</svg>
