<?xml version="1.0" encoding="UTF-8"?>
<!DOCTYPE svg PUBLIC "-//W3C//DTD SVG 1.1//EN" "http://www.w3.org/Graphics/SVG/1.1/DTD/svg11.dtd">
<!-- Creator: CorelDRAW X7 -->
<svg xmlns="http://www.w3.org/2000/svg" xml:space="preserve" width="331px" height="1382px" version="1.1" style="shape-rendering:geometricPrecision; text-rendering:geometricPrecision; image-rendering:optimizeQuality; fill-rule:evenodd; clip-rule:evenodd"
viewBox="0 0 331 1383"
 xmlns:xlink="http://www.w3.org/1999/xlink">
 <defs>
  <style type="text/css">
   <![CDATA[
    .fil0 {fill:#848688}
   ]]>
  </style>
 </defs>
 <g id="Camada_x0020_1">
  <metadata id="CorelCorpID_0Corel-Layer"/>
  <g id="_548982408">
   <path class="fil0" d="M284 454l3 0c6,15 12,15 19,21 -1,1 0,0 -2,2 0,1 -1,1 -2,2 -2,1 -3,2 -4,4 -10,-2 -16,-17 -14,-29zm-5 -11c-1,-7 9,-8 10,-2 2,7 -9,8 -10,2zm-104 -163c6,-1 13,3 18,5l53 21c12,5 23,10 35,14 5,2 32,13 34,15 4,3 1,5 -2,7l-96 38c-6,3 -12,5 -17,8 -22,8 -19,10 -38,2 -19,-8 -120,-48 -122,-50 -5,-5 9,-9 12,-10 16,-7 116,-48 123,-50zm85 91c0,13 0,26 0,39 0,14 2,19 -12,28 -53,32 -151,11 -152,-15 0,-8 1,-34 0,-40 -4,-1 -4,-1 -6,1 -1,2 -1,38 0,43 2,9 14,17 22,21 40,18 107,18 142,-6 4,-3 8,-6 11,-11 4,-8 0,-51 1,-63l15 -6 0 69c-7,2 -12,10 -5,19 3,4 -3,25 13,36 10,7 13,4 20,-5 3,-3 11,-7 4,-11 -1,0 -2,-1 -4,-1 -2,-2 -4,-3 -5,-4 -4,-3 -7,-5 -9,-10 -3,-6 -2,-5 -1,-6 1,-3 2,-5 2,-8 -1,-8 -8,-9 -8,-11l0 -70c1,-2 5,-3 8,-4 7,-3 22,-8 25,-12 5,-6 1,-13 -4,-16 -5,-3 -12,-5 -18,-7l-107 -44c-18,-7 -21,-3 -38,4l-106 43c-7,3 -13,5 -15,11 -3,8 4,11 10,14 24,9 47,19 71,29l53 21c8,3 13,4 21,0 8,-3 69,-28 72,-28z"/>
   <path class="fil0" d="M123 311c-11,4 -22,8 -33,13 -5,2 -10,4 -16,6 -2,1 -6,2 -8,3 -3,2 -2,6 3,5 10,-4 35,-15 48,-20 2,-1 6,-2 8,-3 4,-2 2,-6 -2,-4z"/>
   <path class="fil0" d="M146 301c-4,1 -8,3 -11,4 -7,3 -5,7 -1,6 1,0 15,-5 15,-8 0,-2 -1,-3 -3,-2z"/>
  </g>
 </g>
</svg>
