<?xml version="1.0" encoding="UTF-8"?>
<!DOCTYPE svg PUBLIC "-//W3C//DTD SVG 1.1//EN" "http://www.w3.org/Graphics/SVG/1.1/DTD/svg11.dtd">
<!-- Creator: CorelDRAW X7 -->
<svg xmlns="http://www.w3.org/2000/svg" xml:space="preserve" width="1029px" height="1066px" version="1.1" style="shape-rendering:geometricPrecision; text-rendering:geometricPrecision; image-rendering:optimizeQuality; fill-rule:evenodd; clip-rule:evenodd"
viewBox="0 0 1029 1066"
 xmlns:xlink="http://www.w3.org/1999/xlink">
 <defs>
  <style type="text/css">
   <![CDATA[
    .str0 {stroke:#848688;stroke-width:0.900002}
    .fil0 {fill:#848688}
   ]]>
  </style>
 </defs>
 <g id="Camada_x0020_1">
  <metadata id="CorelCorpID_0Corel-Layer"/>
  <g id="_360946736">
   <path class="fil0 str0" d="M531 677l2 -10 -2 10zm99 -123l35 17c39,16 59,65 59,111 -34,-23 -50,-57 -94,-80l0 -48zm-24 -85c0,-11 23,-47 63,-11 25,23 32,61 32,96 -48,0 -95,-33 -95,-85zm99 0c14,1 24,-12 29,43l-14 0 -15 -43zm-401 109c-14,-58 -4,-180 61,-180 26,0 65,31 76,48 -21,23 -43,43 -65,67 -21,22 -37,62 -72,65zm401 -132l-18 -6c4,-17 7,-12 9,-32l19 10c-3,10 -5,19 -10,28zm-174 231c-13,47 -46,41 -38,76 29,-3 54,-53 63,-79 18,-51 -11,-82 50,-96 0,126 -13,105 -17,143 -4,35 21,46 -1,104 -6,18 -5,13 4,27 16,-11 24,-25 24,-52 25,17 3,23 37,24 0,-36 -35,-40 -41,-87 -3,-17 5,-36 8,-50 5,-18 3,-43 10,-57 12,3 27,16 38,24 0,16 -1,36 0,52 1,20 2,31 23,33 9,-18 -5,-29 -5,-62 13,9 11,12 17,17l21 7c0,79 -43,226 -109,232 -70,6 -178,-78 -223,-122 -34,-34 -45,-57 -57,-114 -10,-51 8,-104 31,-137 35,-47 44,-46 62,-66l42 -42c55,-54 61,-32 61,-73 129,0 182,47 118,43 -37,-2 -60,13 -65,44 -6,39 22,39 22,88 -74,18 -54,63 -108,124 -11,13 -9,5 -5,23 23,-2 20,-12 38,-24zm4 -326c5,-5 26,7 8,3 0,-1 -2,-1 -2,-1 0,0 -14,6 -6,-2zm38 -156c21,16 -5,19 -5,71 0,12 19,22 24,43 -19,28 -27,23 -71,23 -18,26 -14,20 -14,62 -33,22 -35,33 -52,37 -4,-16 -21,-28 -38,-33 0,-45 -4,-80 10,-112 19,-42 54,-44 99,-44 0,-27 9,-40 9,-66l19 0c-1,14 -25,86 2,73 12,-7 4,0 17,-54zm-157 -9c1,4 6,8 10,10 17,9 16,-6 57,-6 0,43 -2,20 5,33 -93,3 -95,97 -95,161 -12,-6 -13,-9 -33,-9 0,-70 -13,-49 5,-156 3,-16 5,-30 9,-43 4,-15 9,-26 10,-42 22,0 21,1 38,4l-6 48zm25 -15c0,-14 2,-17 4,-28 20,0 30,3 43,10 -6,12 2,18 -47,18zm-104 109c0,43 -4,64 4,99 -61,17 -105,236 -18,218 -26,53 -4,150 24,193 47,72 187,166 259,166 57,0 89,-54 106,-97 32,-80 56,-179 11,-261 -8,-14 -10,-13 -18,-25 17,-11 19,-10 19,-38 43,-3 29,-31 29,-75 -10,-5 -12,-7 -24,-10 4,-50 26,-50 -71,-75 -28,-8 -61,-16 -94,-19l28 -14c49,-33 0,-65 0,-81 0,-30 6,-36 13,-58 2,-8 0,2 1,-6 4,-20 -4,-12 -12,-18 -28,-21 -12,-17 -34,-23 -53,-15 -37,19 -53,44 0,-28 0,-35 5,-57 -47,-31 -19,-5 -99,-29 -16,-5 -21,-4 -43,-4 -2,24 -16,50 -22,78 -6,29 -11,58 -11,92z"/>
   <path class="fil0 str0" d="M351 654c0,40 1,32 9,66l19 0c0,-45 -19,-84 18,-143 6,-9 11,-17 17,-25 13,-16 16,-10 17,-31 -22,-5 -36,15 -53,46 -13,23 -27,52 -27,87z"/>
   <path class="fil0 str0" d="M427 337l0 28 18 0c0,-12 5,-46 8,-58 10,-40 23,-14 26,-46 -39,-8 -52,41 -52,76z"/>
  </g>
 </g>
</svg>
