<?xml version="1.0" encoding="UTF-8"?>
<!DOCTYPE svg PUBLIC "-//W3C//DTD SVG 1.1//EN" "http://www.w3.org/Graphics/SVG/1.1/DTD/svg11.dtd">
<!-- Creator: CorelDRAW X7 -->
<svg xmlns="http://www.w3.org/2000/svg" xml:space="preserve" width="522px" height="541px" version="1.1" style="shape-rendering:geometricPrecision; text-rendering:geometricPrecision; image-rendering:optimizeQuality; fill-rule:evenodd; clip-rule:evenodd"
viewBox="0 0 522 541"
 xmlns:xlink="http://www.w3.org/1999/xlink">
 <defs>
  <style type="text/css">
   <![CDATA[
    .fil7 {fill:#FEFEFE}
    .fil6 {fill:#F3F4F4}
    .fil19 {fill:#DBDDDE}
    .fil3 {fill:#D7D8D8}
    .fil16 {fill:#D4D4D5}
    .fil13 {fill:#D4D3D3}
    .fil14 {fill:#D2D2D3}
    .fil1 {fill:#D0CFCF}
    .fil12 {fill:#CECFD0}
    .fil21 {fill:#CECECF}
    .fil8 {fill:#CBCDCE}
    .fil10 {fill:#C7C8CA}
    .fil4 {fill:#C5C5C6}
    .fil11 {fill:#C0C2C4}
    .fil23 {fill:#BFC2C2}
    .fil20 {fill:#BFC0C1}
    .fil2 {fill:#BCBFBF}
    .fil5 {fill:#BCBDBE}
    .fil15 {fill:#B8B8B9}
    .fil9 {fill:#B6B6B8}
    .fil18 {fill:#B1B3B6}
    .fil22 {fill:#B0B1B3}
    .fil17 {fill:#AAAAAE}
    .fil0 {fill:#88898C}
   ]]>
  </style>
 </defs>
 <g id="Camada_x0020_1">
  <metadata id="CorelCorpID_0Corel-Layer"/>
  <g id="_554037608">
   <path class="fil0" d="M153 357c0,0 1,0 1,0l190 0c4,0 24,-1 27,0l0 19c-2,1 -48,0 -54,0l-157 0c-1,0 -6,1 -7,0l0 -19zm-10 -15l0 1 -2 0 0 1 -1 0c-1,2 0,1 0,2l-1 0 0 30 -17 1c0,-3 0,-96 0,-99 0,-11 -1,-97 0,-99 3,-1 148,0 172,0l1 0c1,0 1,0 1,0l0 33c0,1 0,1 1,1l2 2c1,1 1,0 2,1 0,1 -1,1 0,1l9 0 0 40c0,0 0,0 0,0 0,1 1,1 1,1 1,1 -1,0 1,1l1 0c0,0 0,0 0,1l0 0 2 0 0 1 9 0c1,3 0,4 1,6l1 2c1,2 0,2 2,2l0 0c0,1 0,0 0,1 1,0 1,0 1,0l1 0c0,0 0,0 0,0 0,1 0,0 1,1l3 0c0,-1 0,0 0,-1 1,0 0,0 1,0 0,0 1,0 1,0l0 -1c1,0 1,0 2,-1 0,0 0,0 0,0 1,-2 1,-1 1,-3 0,-1 0,-1 0,-1 0,0 1,0 1,0l0 -5c2,0 7,1 9,0 1,0 -1,0 0,0 2,-1 1,0 3,-1l0 0c0,-1 0,-1 0,-1 2,-2 0,-1 2,-3 1,-1 0,1 0,0l0 -39 8 0c2,-1 0,0 1,-1l2 -1c1,0 1,0 1,0l1 -1 0 0 1 -2c0,0 1,1 1,-3 0,-5 -1,-29 0,-30l33 0c0,3 0,166 0,185 0,3 0,9 0,12l-15 0 0 -29c-2,-1 -1,1 -2,-1l-2 -3c-1,-1 0,-1 -1,-1 -1,0 -1,1 -2,0 -1,0 0,0 -1,-1l-230 0c-9,0 -2,1 -6,1zm182 -125l14 0c1,1 1,25 1,29l-15 0 0 -27c0,-2 0,-2 0,-2zm-14 -94l43 0c0,1 0,1 0,2 0,13 0,73 0,76 -2,1 -42,0 -43,0 -1,-3 0,-62 0,-73 0,-2 -1,-5 0,-5zm58 23l33 0 0 16 0 1 -33 0 0 -1 0 -16zm-247 0l174 0 0 16 0 1 -174 0 0 -17zm177 -38l0 1 -1 0 -1 1c0,0 0,0 0,1 0,0 0,0 0,0l-1 19c-1,1 -42,0 -43,0 -8,0 -127,1 -131,0 0,-1 0,-50 0,-51l280 0 0 51 -33 0 0 -17c-1,-2 -1,1 -2,-2l0 -1 0 0c0,0 0,0 0,0l-1 -1 0 -1c-1,0 -1,0 -2,0 -3,-1 1,0 -1,-1l-57 0c-10,0 -3,1 -7,1zm-190 -43l0 2 0 0 -1 1 0 0c0,13 0,27 0,40l0 272c0,3 -1,8 1,8 0,0 0,0 0,1 0,0 1,0 1,0 0,0 0,0 0,0 1,2 1,0 1,2l303 0c0,0 0,0 0,-1l2 -2 1 -2 1 0 0 -317c0,-1 0,0 -1,0 0,-1 0,-1 0,-1 0,0 0,-1 0,-1 -2,0 -1,0 -1,-1l-1 -1c-2,-2 -3,-1 -6,-1l-296 0c-4,0 0,1 -4,1z"/>
   <path class="fil0" d="M378 38l1 0 1 2c1,0 -1,-1 0,0 1,1 1,0 2,1 2,1 -1,0 1,1l54 0 0 457c-12,0 -24,0 -36,0 -77,0 -155,0 -232,0 -3,0 -6,0 -9,0 -1,0 -1,-1 -2,0l-4 3 0 2c-2,1 -1,0 -1,3 0,0 0,0 0,0 0,1 1,0 1,1 0,4 0,2 1,3l1 0 0 1 1 1 1 0 290 0c0,-1 0,0 1,-1l1 0 0 -1 1 0c1,-1 1,1 1,-2l1 0 0 -477 -1 0 0 -2 -1 0 0 -1c-2,-1 0,-1 -2,-1l-68 0c-1,0 -1,2 -2,3 -2,2 0,-1 -1,0 0,2 1,1 0,3 -1,1 0,-1 -1,0 1,3 -1,-1 1,1 1,1 0,1 0,3z"/>
   <path class="fil0" d="M69 513c7,0 64,0 65,0l2 0c2,0 3,-1 4,-2 1,-1 2,-3 2,-5 0,-4 -3,-7 -6,-7 -9,-1 -49,1 -52,0 -1,-3 -1,-112 -1,-115l1 -342c0,0 0,0 0,0 25,0 50,0 76,0l190 0c3,0 6,0 9,0 8,1 12,-11 3,-14l-1 -1 -292 0 0 486z"/>
   <path class="fil0" d="M325 299l0 6c-2,1 -5,0 -7,0l0 1 -1 0c0,1 -1,0 -1,1l-1 0c0,2 0,1 -1,2 0,0 0,0 0,1l0 0c0,0 0,1 0,1l-1 0c0,2 0,5 2,7 0,1 -1,0 1,0 0,0 0,1 0,1l1 0c0,1 -1,1 2,1 1,1 0,1 1,1l12 0c1,0 0,0 1,-1 6,0 2,0 4,-1l0 -1 1 0c0,-1 0,0 0,0l1 -1c0,-1 0,-1 0,-3 2,0 1,0 1,-2l0 -11c0,0 0,0 -1,0 0,-2 0,-2 0,-3 -1,-1 -1,1 -1,-2 -1,0 -1,0 -2,-1l0 0c-1,0 -1,-1 -1,-1 -1,-1 1,0 0,0 0,0 -6,0 -6,0 0,1 -1,1 -1,1 0,0 0,0 0,0 0,0 -1,0 -1,0 0,1 1,1 -1,1l-1 3z"/>
   <path class="fil0" d="M271 306l0 1c0,0 -1,0 -1,0l-2 0c0,1 0,1 0,2 0,1 0,0 0,1 -1,1 -2,2 -1,4 0,0 0,0 0,1 1,1 0,1 1,2 0,0 0,0 0,0 0,0 0,0 0,1 0,0 1,0 1,0 0,0 1,1 1,1 0,0 0,0 0,0 0,0 0,0 0,0l4 1c0,0 0,0 0,0 0,1 0,1 1,1l18 0c2,0 0,0 1,-1 2,0 3,0 4,-1l1 -1c0,0 0,0 0,0 1,-1 -1,1 0,0 0,0 0,0 0,-1 1,0 1,0 1,0 1,0 0,-1 1,-3 0,0 0,1 0,-1 -1,-2 1,1 0,-1 -1,-1 -1,-1 -1,-3l-1 0 0 -2c-3,0 -2,-2 -3,-2l-24 0c-1,1 -1,0 -1,1z"/>
   <path class="fil0" d="M226 306c0,0 0,0 -1,1 0,0 -1,0 -1,0l0 0c-2,1 0,1 -2,1l0 1 -1 0c0,5 0,2 -1,4 0,1 1,-1 1,2 0,1 0,0 1,1 0,2 0,1 0,2l1 0c1,1 1,1 1,1l1 0 0 1 2 0c1,1 0,1 1,1l19 0c2,0 0,0 2,-1 1,0 2,0 3,-1l0 -1c2,-1 0,1 1,-1 2,0 0,1 1,-1 0,0 0,0 0,0 1,-1 0,0 1,-1 0,-1 0,-3 0,-3 -1,-2 -1,0 -1,-3l-1 0 0 -2c-1,0 -2,0 -2,0 0,0 0,-1 0,-1 0,0 -1,0 -1,-1l-23 0c-1,1 -1,0 -1,1z"/>
   <path class="fil0" d="M187 306c0,0 0,0 -1,0 0,0 -1,1 -1,1 0,1 1,0 0,0 -1,0 0,0 -1,1l-2 2c1,1 1,5 0,6 1,1 1,0 1,1 0,0 0,0 0,0 0,0 0,0 0,0 1,2 1,2 2,2l1 0c1,1 0,1 2,1 2,0 0,1 2,1l11 0c2,0 0,0 1,-1 2,0 3,0 4,-1l1 -2 1 -1c0,-3 1,-5 -1,-8 0,-1 -1,-1 -1,-1 -1,-1 -2,0 -2,-1l0 -1 -17 0 0 1z"/>
   <path class="fil1" d="M139 346c-1,1 0,0 -1,1 0,0 0,0 0,1 0,0 0,1 0,2l0 26 -15 0 -1 -197 174 0c0,0 0,0 -1,0l-1 0c-24,0 -169,-1 -172,0 -1,2 0,88 0,99 0,3 0,96 0,99l17 -1 0 -30z"/>
   <path class="fil0" d="M169 443l0 1c2,0 1,0 1,0 0,1 0,2 0,2 0,1 1,1 1,1 0,0 0,0 0,0l0 2 2 0 0 1c2,0 -1,0 2,1 0,0 2,0 3,0 4,0 0,-1 4,-1l0 -1 1 0c0,-1 0,-1 0,-1l1 -2c1,-1 1,-3 1,-5 -1,-1 0,0 -1,0 0,0 0,-1 0,-1l-2 -2c0,0 0,0 0,0l0 0c0,0 0,0 0,0 0,-1 0,-1 0,-1l-1 0c-1,-1 0,0 0,-1l-6 0c-2,0 0,0 -2,1 -3,1 -1,2 -3,3l0 0c0,3 0,3 -1,3z"/>
   <path class="fil0" d="M219 437l-3 1c0,1 0,1 0,1 -1,1 0,2 -1,3 0,1 0,1 0,2 0,0 0,0 0,0 0,1 0,2 1,3 0,1 0,-1 0,2l2 0 0 1c2,0 0,0 1,0 1,1 2,1 4,1 3,0 2,-1 2,-1 1,0 0,0 2,0l0 -1 1 0c0,-2 1,-1 1,-3 0,0 0,0 0,-1l1 0c0,0 0,0 0,0 0,-1 0,-2 0,-3 0,-2 -1,-1 -1,-2 0,0 0,0 0,0l0 -1 -1 0 0 -1c-2,-1 1,-1 -2,-1l-6 -1c0,0 0,1 -1,1l0 0c0,0 0,0 0,0z"/>
   <path class="fil0" d="M126 438l-1 2 0 0 0 6c0,1 0,1 0,1 1,1 0,0 1,1 0,0 0,0 0,0 0,1 1,1 1,1l0 0c1,1 0,0 1,1l1 1 6 -1c2,-1 2,-1 2,-2 1,-1 1,-1 1,-2 1,0 1,0 1,0l0 -6 -1 0 0 -1c-1,0 0,0 -2,-2 0,0 0,0 0,0 0,0 0,0 0,0 -2,-1 -5,-1 -7,-1l-3 1c-1,1 1,0 0,1z"/>
   <path class="fil2" d="M136 499c0,0 0,0 -1,-1 -1,0 -1,0 -2,0l-49 0 0 -456c0,0 0,0 0,0l-1 342c0,3 0,112 1,115 3,1 43,-1 52,0z"/>
   <path class="fil3" d="M153 376c1,1 6,0 7,0l157 0c6,0 52,1 54,0l0 -19c-3,-1 -23,0 -27,0l-190 0c0,0 -1,0 -1,0l218 0 0 19 -218 0z"/>
   <path class="fil4" d="M296 130l-174 0 0 0 0 -51c0,1 0,50 0,51 4,1 123,0 131,0 1,0 42,1 43,0z"/>
   <path class="fil5" d="M354 123l0 78 -43 0c0,-4 0,-76 0,-78 -1,0 0,3 0,5 0,11 -1,70 0,73 1,0 41,1 43,0 0,-3 0,-63 0,-76 0,-1 0,-1 0,-2z"/>
   <path class="fil6" d="M134 513c-1,0 -58,0 -65,0l0 0 65 0z"/>
   <path class="fil7" d="M451 511c0,0 0,0 0,0 -1,1 -1,1 -1,1 0,0 0,0 0,0l0 0 -1 0c-1,1 -1,0 -1,1l5 0 0 -4 -1 0c0,3 0,1 -1,2z"/>
   <path class="fil8" d="M318 305c2,0 5,1 7,0l0 -6c-1,0 -1,-1 -1,1l0 5 -5 0c0,0 -1,0 -1,0 -1,0 0,0 0,0z"/>
   <path class="fil9" d="M219 437c0,0 0,0 0,0l0 0c1,0 1,-1 1,-1l6 1 0 -1 -7 0 0 1z"/>
   <path class="fil10" d="M215 444c0,0 0,0 0,0 0,-1 0,-1 0,-2l-1 0 1 2 0 0z"/>
   <path class="fil11" d="M185 307c1,0 0,1 0,0 0,0 1,-1 1,-1 1,0 1,0 1,0l-2 0 0 1z"/>
   <path class="fil11" d="M109 67l0 0 0 -2c0,0 0,0 0,1l0 1c0,0 0,0 0,0z"/>
   <path class="fil11" d="M416 388c1,0 1,0 1,-1 0,0 0,-1 0,-1 1,0 0,1 1,0l-1 0 -1 2z"/>
   <path class="fil10" d="M173 450l0 -1 -2 0 2 1c0,0 0,0 0,0z"/>
   <polygon class="fil12" points="206,319 207,318 207,317 "/>
   <path class="fil13" d="M141 343l2 0 0 -1c-1,1 -1,0 -1,1 0,0 -1,0 -1,0 -1,0 0,0 0,0z"/>
   <path class="fil14" d="M254 309l-1 0c0,0 0,-1 0,-1 0,-1 0,0 0,-1l0 2 1 0z"/>
   <path class="fil14" d="M300 309l0 0c0,0 0,-1 0,-1 -1,-1 0,0 -1,-1l0 2 1 0z"/>
   <path class="fil9" d="M224 307l0 0c0,0 1,0 1,0 1,-1 1,-1 1,-1l-2 0 0 1z"/>
   <path class="fil3" d="M315 261l0 -1 -2 0c1,1 1,0 2,1z"/>
   <path class="fil4" d="M417 69l0 -2 -1 -1c0,1 -1,1 1,1 0,0 0,1 0,1 0,0 0,0 0,1z"/>
   <path class="fil1" d="M218 450l0 -1 -2 0c1,0 0,0 1,0 0,0 1,0 1,0l0 1z"/>
   <path class="fil15" d="M137 448l1 0 0 -2c0,1 0,1 -1,2z"/>
   <path class="fil9" d="M206 307l-1 -1 -1 0c0,1 1,0 2,1z"/>
   <path class="fil16" d="M225 319l-1 0c0,0 0,0 -1,-1l0 1 2 0z"/>
   <path class="fil2" d="M316 307c0,-1 1,0 1,-1l1 0 -2 0 0 1z"/>
   <path class="fil17" d="M140 346c0,-1 -1,0 0,-2l1 0 -1 0 0 2z"/>
   <path class="fil15" d="M298 109l1 0 0 -1c0,0 0,0 0,0 0,1 0,1 0,1l-1 0z"/>
   <path class="fil9" d="M380 40l-1 -2 -1 0c1,0 0,0 1,0 0,0 0,1 0,1 0,0 0,0 1,1z"/>
   <path class="fil1" d="M298 319l1 -1 1 -1c0,0 0,0 -1,0 0,1 0,1 0,1 -1,1 1,-1 0,0 0,0 0,0 0,0l-1 1z"/>
   <path class="fil18" d="M334 272l2 0 0 -1 0 1c0,0 -1,0 -1,0 -1,0 0,0 -1,0z"/>
   <path class="fil8" d="M125 440l0 0 1 -2c0,0 0,0 -1,0 0,0 0,0 0,0l0 2c-1,0 0,0 0,0z"/>
   <polygon class="fil5" points="156,512 156,511 155,511 "/>
   <path class="fil19" d="M229 439l-1 -1c0,0 0,0 0,0l0 1 1 0z"/>
   <path class="fil20" d="M330 272c0,0 0,0 0,0l-1 0c0,0 0,0 -1,0 0,-1 0,0 0,-1l0 0 0 1 2 0z"/>
   <path class="fil21" d="M252 319l1 -1 0 -1c-1,2 1,0 -1,1l0 1z"/>
   <path class="fil5" d="M313 260c0,-1 0,-1 0,-1l-1 0 0 0 1 1z"/>
   <path class="fil19" d="M221 309l1 0 0 -1 -1 1c0,0 0,0 0,0z"/>
   <path class="fil20" d="M110 389c0,0 0,0 0,0 0,0 -1,0 -1,0 0,-1 0,-1 0,-1l0 1 1 0z"/>
   <path class="fil9" d="M170 444c0,0 1,0 -1,0l0 -1 0 1c0,0 0,0 1,0z"/>
   <path class="fil12" d="M127 449l0 0c0,0 -1,0 -1,-1 0,0 0,0 0,0l0 1 1 0z"/>
   <path class="fil22" d="M450 512l0 0c0,0 0,0 0,0 0,0 0,0 1,-1 0,0 0,0 0,0l-1 0 0 1z"/>
   <path class="fil10" d="M367 110l0 -1 -1 0 1 1c0,0 0,0 0,0z"/>
   <path class="fil16" d="M270 319c0,0 0,0 0,0 0,0 0,0 0,0 0,0 -1,-1 -1,-1l0 1 1 0z"/>
   <path class="fil16" d="M317 319l-1 0c0,0 0,-1 0,-1l0 1 1 0z"/>
   <path class="fil11" d="M366 215c0,0 1,0 1,-1 0,0 0,0 0,0l0 0 -1 1z"/>
   <path class="fil2" d="M337 319c0,0 1,0 1,0 0,0 0,-1 0,-1l0 0 -1 0 0 1z"/>
   <path class="fil16" d="M182 450c0,0 0,-1 0,-1 0,0 1,0 1,0 0,0 0,0 0,0l-1 0 0 1z"/>
   <path class="fil4" d="M227 450c0,0 0,0 0,0 0,0 1,0 1,-1l0 0 -1 0 0 1z"/>
   <path class="fil18" d="M270 307c0,0 1,0 1,0l0 -1 -1 0 0 1z"/>
   <path class="fil15" d="M452 30c0,0 0,0 0,0 0,0 -1,-1 -1,-1 0,0 0,0 0,0l0 1 1 0z"/>
   <path class="fil9" d="M139 440c0,0 0,0 0,0 0,0 -1,-1 -1,-1 0,0 0,0 0,0l0 1 1 0z"/>
   <path class="fil23" d="M108 68l0 0 1 -1c0,0 -1,0 -1,0 0,0 0,1 0,0 0,0 0,1 0,1z"/>
  </g>
 </g>
</svg>
