<?xml version="1.0" encoding="UTF-8"?>
<!DOCTYPE svg PUBLIC "-//W3C//DTD SVG 1.1//EN" "http://www.w3.org/Graphics/SVG/1.1/DTD/svg11.dtd">
<!-- Creator: CorelDRAW X7 -->
<svg xmlns="http://www.w3.org/2000/svg" xml:space="preserve" width="522px" height="541px" version="1.1" style="shape-rendering:geometricPrecision; text-rendering:geometricPrecision; image-rendering:optimizeQuality; fill-rule:evenodd; clip-rule:evenodd"
viewBox="0 0 522 541"
 xmlns:xlink="http://www.w3.org/1999/xlink">
 <defs>
  <style type="text/css">
   <![CDATA[
    .fil0 {fill:#848688}
   ]]>
  </style>
 </defs>
 <g id="Camada_x0020_1">
  <metadata id="CorelCorpID_0Corel-Layer"/>
  <path class="fil0" d="M169 162c4,4 7,7 11,12 3,4 7,7 10,11 -7,5 -17,9 -28,7l7 -30zm-42 15c3,-5 1,-3 8,-8 12,-8 14,-16 20,-20l-10 39c-8,-2 -13,-7 -18,-11zm76 -3c-5,-4 -17,-17 -19,-23l6 0 17 0 7 0c-2,10 -5,17 -11,23zm-1 -65c6,9 9,13 12,26l-32 -1 20 -25zm-37 18c-2,-5 -1,-25 -2,-34 11,1 15,3 24,5 -3,8 -16,24 -22,29zm-58 -72c25,6 48,36 39,70 -7,25 -32,48 -67,42 -66,-12 -62,-113 11,-115l-5 19 16 3 6 -19zm-32 128c15,2 20,2 34,-1 8,5 8,11 25,20 58,30 126,-35 84,-98 -6,-9 -15,-16 -25,-21 -13,-6 -21,-6 -36,-6 -8,-16 -22,-29 -38,-36 4,-7 13,-13 24,-16l-5 -16c-14,3 -32,18 -37,27 -42,-1 -77,17 -85,61 -3,24 4,44 15,58 13,17 20,19 44,28z"/>
  <path class="fil0" d="M185 357c10,4 32,4 29,21 -3,16 -22,12 -38,14 -9,19 -10,85 -11,108l-51 0c-3,-19 -5,-40 -13,-55 -4,-7 -18,-40 -23,-43 -25,-13 -1,38 -33,31 -8,-1 -14,-9 -13,-19 2,-14 10,-8 16,-18 0,-12 -13,-12 -6,-28 6,-15 20,-5 28,-10 7,-5 -2,-42 30,-40 17,1 11,10 26,9 21,-3 12,8 29,6 1,-2 10,-24 28,-12 4,3 8,9 6,17 -2,10 -8,5 -4,19zm-158 34c-5,7 -11,12 -11,25 -1,20 16,36 37,34 13,-2 18,-9 24,-14 23,31 14,74 26,80 9,2 68,2 75,-1 7,-9 3,-41 3,-54 1,-12 6,-39 9,-51 19,-6 34,-7 39,-26 9,-26 -17,-35 -24,-40 4,-26 -11,-46 -37,-43 -7,1 -11,4 -15,7 -7,5 -4,4 -14,2 -9,-1 -11,1 -19,-2 -15,-7 -31,-12 -48,2 -13,12 -8,12 -15,28 -3,9 0,1 -14,8 -17,7 -23,25 -16,45z"/>
  <path class="fil0" d="M440 140c-7,-2 -8,3 -16,7 5,15 42,50 39,128 -15,4 -139,1 -166,1l1 -205c14,2 25,7 38,10l6 -15 -44 -13c-20,4 -17,-7 -17,46 0,33 -2,179 2,191 11,5 189,3 192,1 13,-7 0,-71 -4,-84 -5,-19 -12,-35 -22,-51 -5,-9 -8,-9 -9,-16z"/>
  <path class="fil0" d="M369 477c-9,-4 -16,0 -20,-9 -5,-9 2,-15 9,-18 8,3 8,11 20,5 6,-3 11,-8 18,-10l7 7c-4,6 -8,12 -11,18 -6,14 6,12 4,20 -1,7 -10,13 -18,8 -8,-5 -3,-12 -9,-21zm46 -36c-11,-15 -10,-6 -7,-33 2,-14 1,-23 10,-34 13,-15 42,-23 63,-7 17,13 23,40 4,59 -14,14 -49,15 -70,15zm-6 34l10 -17c26,-2 56,-2 72,-15 15,-12 29,-36 19,-64 -16,-45 -87,-51 -110,-8 -17,31 2,54 -22,65 -12,5 -3,-1 -16,-2 -17,-2 -35,13 -30,35 3,16 11,15 21,22 8,5 5,18 22,24 25,9 50,-20 34,-40z"/>
  <path class="fil0" d="M400 118l5 -13c5,0 7,-1 12,4 2,2 1,1 3,4 -6,6 -9,10 -20,5zm89 -64l0 9c-1,1 -1,2 -2,3 -7,7 -12,17 -25,18 -17,3 -22,-7 -30,-14l-16 18c5,4 30,17 19,32 -9,14 -18,21 -42,14l-5 34 -15 0c-2,-14 3,-34 7,-46l-6 -3c-22,-9 -25,-27 -16,-48 26,-10 37,6 44,9 3,-8 8,-10 12,-17 -3,-3 -7,-9 -8,-11l-1 0c-2,-17 -5,-32 14,-35 27,-3 28,11 35,16 15,-8 37,-14 59,-14l0 16c-16,1 -22,4 -36,6 3,6 5,7 9,14 1,-1 2,-2 2,-2 0,0 1,1 1,1zm-118 31c13,0 23,10 16,17 -4,4 -10,1 -13,-1 -4,-4 -3,-9 -3,-16zm76 -26c7,-12 19,-8 23,2 -4,4 -5,7 -13,7 -7,0 -8,-4 -10,-9zm-9 -18c-3,4 -8,10 -13,8 -5,-1 -5,-9 -4,-15 10,0 12,-1 17,7z"/>
  <path class="fil0" d="M66 276l182 0 0 190c-19,-1 -31,-6 -47,-9 -2,4 -4,10 -5,16 76,19 68,11 68,-18 0,-30 2,-187 -2,-192 -8,-7 -39,-4 -52,-4 -30,0 -148,-3 -160,3 -2,12 -1,28 2,40l15 -3 -1 -23z"/>
  <path class="fil0" d="M62 190c-1,13 -13,33 -10,49 5,7 133,4 158,4 13,0 44,3 53,-4 4,-10 2,-169 0,-185 -14,-4 -35,1 -50,4l3 16 32 -4 -1 156 -177 0c1,-11 5,-20 8,-30l-16 -6z"/>
  <path class="fil0" d="M284 480c9,3 23,0 32,-3l-4 -15 -14 2 -1 -138 155 0c7,3 -1,-1 3,6l13 4c5,-7 7,-17 4,-25 -8,-2 -169,-4 -183,-2 -13,2 -8,25 -8,36 0,27 -3,124 3,135z"/>
  <path class="fil0" d="M127 390c-9,-6 -20,-14 -37,-14l0 16c37,5 33,22 33,58l17 0c0,-40 -6,-58 25,-67l0 -15c-10,-1 -17,2 -23,6 -8,5 -9,11 -15,16z"/>
  <path class="fil0" d="M123 97c-3,-4 -7,-7 -10,-11 -7,3 -12,9 -23,7 -10,-3 -11,-10 -15,-19l-15 1c3,35 42,46 63,22z"/>
  <path class="fil0" d="M459 394c3,-4 7,-9 8,-14 -10,-5 -21,-7 -31,0 -7,4 -14,13 -13,24l14 1c8,-11 5,-15 22,-11z"/>
  <polygon class="fil0" points="356,234 365,234 372,234 372,218 365,218 356,218 "/>
  <polygon class="fil0" points="356,201 365,201 372,201 372,185 365,185 356,185 "/>
  <polygon class="fil0" points="389,193 405,193 405,183 405,176 389,176 "/>
  <polygon class="fil0" points="389,259 405,259 405,243 396,243 389,243 "/>
  <polygon class="fil0" points="314,217 331,217 331,201 314,201 "/>
  <path class="fil0" d="M323 185l16 -1c1,-17 1,-17 -16,-16l0 17z"/>
  <polygon class="fil0" points="431,226 447,226 446,210 431,210 "/>
  <polygon class="fil0" points="389,226 405,226 404,210 389,210 "/>
  <polygon class="fil0" points="323,251 339,250 339,235 323,235 "/>
 </g>
</svg>
