<?xml version="1.0" encoding="UTF-8"?>
<!DOCTYPE svg PUBLIC "-//W3C//DTD SVG 1.1//EN" "http://www.w3.org/Graphics/SVG/1.1/DTD/svg11.dtd">
<!-- Creator: CorelDRAW X7 -->
<svg xmlns="http://www.w3.org/2000/svg" xml:space="preserve" width="500px" height="484px" version="1.1" style="shape-rendering:geometricPrecision; text-rendering:geometricPrecision; image-rendering:optimizeQuality; fill-rule:evenodd; clip-rule:evenodd"
viewBox="0 0 500 484"
 xmlns:xlink="http://www.w3.org/1999/xlink">
 <defs>
  <style type="text/css">
   <![CDATA[
    .fil0 {fill:#848688}
   ]]>
  </style>
 </defs>
 <g id="Camada_x0020_1">
  <metadata id="CorelCorpID_0Corel-Layer"/>
  <g id="_556735104">
   <path class="fil0" d="M98 317c1,18 0,17 -13,23 -20,-2 -19,-4 -19,-26l32 3 0 0zm312 21c-7,-11 -11,-7 -16,-24l33 0c-4,16 -6,16 -17,24l0 0zm-148 -15c21,-11 24,-22 36,-18 3,9 0,11 -6,21 -3,4 -3,6 -6,10 -11,13 -1,2 -11,9l-13 -22 0 0zm-48 13c-8,-9 -15,-20 -12,-31 5,-2 -7,-7 9,0l26 23c-7,7 -7,6 -12,17 -10,-7 0,3 -11,-9l0 0zm-101 -22c3,-14 9,-14 17,-32l5 19c-7,6 -12,10 -22,13zm-83 -21l5 -11 4 7c4,6 7,11 11,15l4 12 -10 -5c-9,-6 -14,-4 -14,-18l0 0zm256 -9c-5,15 -24,25 -35,30 -21,-10 -39,-21 -39,-40 -3,-1 -5,-2 -8,-4l0 -2c-3,-1 -5,-2 -7,-4 0,0 0,0 -1,0 1,0 1,1 1,2 10,36 -44,62 -72,64 5,-11 17,-18 24,-28 -5,-30 -4,-77 -15,-100 -11,-22 -39,-43 -73,-29 -12,5 -24,18 -30,28 -6,13 -9,28 -10,46 -2,54 -16,52 18,81 -20,18 -15,3 -32,30l0 70c20,3 7,7 13,-7 0,-38 -8,-69 24,-78 23,-6 23,24 53,7 14,-7 -3,-7 21,-10l-5 73c2,21 -2,10 7,18 6,-5 8,9 7,-36 0,-13 -2,-31 4,-43 7,-15 45,-26 60,-29 4,7 15,30 21,33 14,11 23,-3 30,-10l0 71c4,21 -3,10 14,14l2 -85c28,28 36,10 51,-23 109,21 41,80 71,108 13,-11 7,-65 4,-79 -5,-17 -9,-6 -3,-15 7,-6 22,12 22,33 1,19 -6,50 8,61 11,-14 5,-39 5,-57 0,-29 6,-27 19,-40 58,16 45,15 45,87 6,14 -7,9 13,7l0 -76c-25,-36 -38,-18 -54,-38 1,-2 40,-65 30,-143 -39,-8 -101,-9 -115,27 -7,19 1,47 4,68 6,33 21,28 23,54 -27,7 -53,1 -69,-21 -9,-10 -11,-18 -11,-26 -1,1 -1,1 -2,1 -1,1 -2,2 -3,3 -2,4 -6,6 -10,7l0 0zm171 -100c1,39 -4,142 -64,112 -21,-10 -21,-40 -27,-69 -11,-52 51,-45 91,-43l0 0zm-409 63c23,-4 19,-21 47,-8 49,24 12,65 -17,62 -31,-5 -47,-54 -40,-80 15,-50 88,-59 91,26 -15,-13 -79,-57 -81,0z"/>
   <path class="fil0" d="M276 266c1,26 -1,24 -19,34 -28,-4 -28,-6 -27,-37l46 3zm28 35l0 -1c-35,3 -10,3 -30,14 -40,23 -43,-12 -68,-11 -1,-1 -2,-1 -2,-2 -1,0 -2,-1 -3,-2 -1,-1 -1,-3 -2,-4 -2,-5 -7,-10 -11,-11l2 -2c-49,-42 -29,-39 -24,-117 1,-25 3,-47 13,-66 8,-15 27,-33 42,-40 49,-20 91,9 106,42 17,33 15,101 22,144 -10,16 -28,25 -34,40l2 0c-3,2 -5,6 -6,10 -1,0 -1,1 -2,3 0,0 -1,1 -1,1 -2,1 -2,1 -2,1 -1,0 -1,1 -2,1l0 0zm-8 -37c4,-21 14,-23 26,-47l6 27c-10,9 -16,14 -32,20zm-119 -32l7 -15 6 8c6,11 11,16 17,23l4 16 -13 -6c-14,-8 -21,-6 -21,-26l0 0zm28 -66c32,-8 27,-31 67,-11 70,34 17,93 -26,88 -44,-6 -68,-77 -58,-115 21,-72 128,-85 132,37 -22,-18 -113,-82 -115,1l0 0z"/>
   <path class="fil0" d="M381 217c7,14 55,13 57,12 -2,-16 7,-4 -7,-12 -2,-1 -37,-14 -50,0z"/>
   <path class="fil0" d="M455 430c7,-3 8,7 8,-30 0,-5 0,-14 0,-18 -2,-21 1,-7 -5,-15 -13,7 -8,12 -8,28l0 26c2,8 2,5 5,9z"/>
   <path class="fil0" d="M46 430c2,-4 2,-1 4,-9l0 -30c-3,-21 0,-6 -4,-14 -15,9 -14,45 0,53l0 0z"/>
   <path class="fil0" d="M159 409c0,20 -3,14 9,22 3,-5 3,-1 5,-10 4,-23 1,-32 -10,-37 -6,10 -4,8 -4,25l0 0z"/>
   <path class="fil0" d="M332 430c11,-5 14,-17 9,-35 -3,-12 1,-5 -9,-11 -3,6 -3,2 -5,11 -2,13 -1,26 5,35z"/>
   <path class="fil0" d="M30 293c5,-4 4,-2 9,-4l-4 -7 -5 11 0 0z"/>
   <path class="fil0" d="M44 311l10 5 -4 -12c-1,8 2,6 -6,7z"/>
  </g>
 </g>
</svg>
